<svg width="1113" height="1113" viewBox="0 0 1113 1113" fill="none" xmlns="http://www.w3.org/2000/svg">
<path opacity="0.8" d="M0 453.036C0 296.149 0 217.705 30.0472 157.571C57.6263 102.377 102.377 57.6263 157.571 30.0472C217.705 0 296.149 0 453.036 0H659.964C816.851 0 895.295 0 955.429 30.0472C1010.62 57.6263 1055.37 102.377 1082.95 157.571C1113 217.705 1113 296.149 1113 453.036V659.964C1113 816.851 1113 895.295 1082.95 955.429C1055.37 1010.62 1010.62 1055.37 955.429 1082.95C895.295 1113 816.851 1113 659.964 1113H453.036C296.149 1113 217.705 1113 157.571 1082.95C102.377 1055.37 57.6263 1010.62 30.0472 955.429C0 895.295 0 816.851 0 659.964V453.036Z" fill="url(#paint0_linear_1067_8)"/>
<g filter="url(#filter0_i_1067_8)">
<path d="M681.902 744.597C707.655 744.597 728.53 720.535 728.53 690.856C728.53 643.877 726.444 612.647 758.673 575.5C767.777 565.006 767.777 547.994 758.673 537.5C726.444 500.354 728.53 469.122 728.53 422.145C728.53 392.464 707.655 368.403 681.902 368.403" stroke="#3A586E" stroke-width="56.392" stroke-linecap="round" stroke-linejoin="round"/>
<path d="M431.094 744.597C405.342 744.597 384.466 720.535 384.466 690.856C384.466 643.877 386.552 612.647 354.324 575.5C345.219 565.006 345.219 547.994 354.324 537.5C385.845 501.168 384.466 469.556 384.466 422.145C384.466 392.464 405.342 368.403 431.094 368.403" stroke="#3A586E" stroke-width="56.392" stroke-linecap="round" stroke-linejoin="round"/>
</g>
<defs>
<filter id="filter0_i_1067_8" x="305.694" y="305.704" width="509.012" height="516.432" filterUnits="userSpaceOnUse" color-interpolation-filters="sRGB">
<feFlood flood-opacity="0" result="BackgroundImageFix"/>
<feBlend mode="normal" in="SourceGraphic" in2="BackgroundImageFix" result="shape"/>
<feColorMatrix in="SourceAlpha" type="matrix" values="0 0 0 0 0 0 0 0 0 0 0 0 0 0 0 0 0 0 127 0" result="hardAlpha"/>
<feOffset dx="7.42" dy="14.84"/>
<feGaussianBlur stdDeviation="23.1504"/>
<feComposite in2="hardAlpha" operator="arithmetic" k2="-1" k3="1"/>
<feColorMatrix type="matrix" values="0 0 0 0 0 0 0 0 0 0 0 0 0 0 0 0 0 0 0.25 0"/>
<feBlend mode="normal" in2="shape" result="effect1_innerShadow_1067_8"/>
</filter>
<linearGradient id="paint0_linear_1067_8" x1="0" y1="0" x2="1038.06" y2="1138.23" gradientUnits="userSpaceOnUse">
<stop stop-color="#E8EFF4"/>
<stop offset="1" stop-color="#E6ECF0"/>
</linearGradient>
</defs>
</svg>
